<?xml version="1.0" encoding="UTF-8"?>
<svg id="Layer_2" data-name="Layer 2" xmlns="http://www.w3.org/2000/svg" viewBox="0 0 418.05 537.35">
  <defs>
    <style>
      .cls-1 {
        fill: #c30f23;
      }
    </style>
  </defs>
  <g id="_图层_1" data-name="图层 1">
    <g>
      <rect class="cls-1" x="185.98" y="170.32" width="12.31" height="6.95"/>
      <rect class="cls-1" x="246.3" y="184.7" width="23.27" height="7.02"/>
      <path class="cls-1" d="M0,0v418.1h418.04V0H0ZM72.82,375.63h-38.63V119.61h38.63v256.02ZM308.17,192.64c0,43.42-6.59,59.29-22.01,75.88-21.48,23.09-54.97,22.79-70.45,22.74h-67.45v20.94c0,8.63-.02,18.93,3.51,22.79,4.63,5.09,11.1,4.73,24.77,4.73,1.63,0,129.92-.1,129.92-.1v35.86h-148.53c-18.04,0-27.84-3.69-34.83-10.94-13.58-14.1-13.04-33.3-13.04-42.75v-67.68h104.98c49.7,0,54.43-31.82,54.43-42.7,0-4.16.05-9.14.07-10.99h.04v-.9h-35.17v-22.32h24.27v-7.04h-24.27v-7.57h35.15v-.1h.02v-.88h-.02v-41.81h38.63s0,72.84,0,72.84ZM148.76,162.59v37.05h-38.66v-79.91h38.62v42.87h.04ZM155.61,199.48v-36.89h11.88v36.89h-11.88ZM174.02,184.92v-22.33h36.26v36.89h-.07v.07h-36.19v-7.81h24.26v-6.81h-24.26ZM216.52,199.48v-36.89h11.87v36.89h-11.87ZM382.34,375.63h-38.61V119.61h38.61v256.02ZM382.85,93.51h-154.02v47.34h-39.7v-47.34H34.03v-37.05h155.1v-28.98h39.7v28.98h154.02v37.05Z"/>
    </g>
    <g>
      <path class="cls-1" d="M178.41,473.07s-.15.2.04.42c0,0-.47.37-.24.6,0,0,.39.38-.33.43,0,0-.29-.15-.54.13,0,0-1.24.34-1.68-.28,0,0-.24-.51-.78-.66,0,0-.33-.87.15-1.12,0,0,.39-.94,1.16-1.08,0,0,1.01-.99,1.73-.47,0,0,.58.9.77,1.03,0,0,.15.69-.29.99M175.95,488.94l.15.03c-.08.01-.09.01-.15.01v-.04ZM169.5,481.39l-.79.15c-.38.75-1.87.32-1.87.32-.68,0-.87-.32-.87-.32-.34-.47-.1-1.31-.1-1.31.24.09.29-.66.29-.66.48-.19,1.01-.81,1.01-.81l.72.05c1.2,0,1.55,1.08,1.55,1.08.91,1.56.05,1.5.05,1.5M197.37,484.02s-1.2-2.27-2.89-.87c0,0-.44.14-.91.59,0,0-.41.44-1.52.15l-1.69-.09s-1.31-.53-2.85-1.98c0,0-.33-.54.07-.87,0,0-.02-1.23-1.65-2.52,0,0-.07-.84-.92-2.15,0,0-.61-1.5-.64-2.47,0,0,.3-1.88.8-2.8,0,0,.11-.63.27-.69,0,0,.44-.17.44-1.67,0,0-.1-1.16,1.27-2.42,0,0,.82-.47.75-2.18,0,0,.04-.88.13-.94,0,0,1.16-2.82-2.33-3.54,0,0-.15-.54-2.43-.43,0,0-.81-.34-1.01-.94,0,0-1.05-2.26-2.41.02,0,0-1.49,1.55-2.85,3.81,0,0-.33.35-1.34.2,0,0-.31-.18-1.08.57,0,0-1.98.19-2.28-.18,0,0,0-1.21-1.23-1.36l.02-.65s.39.04.37-1.54c0,0,.99-.83,1.69-1.78,0,0,1.65-.62,2.35-2.19,0,0,2.39-1.02,3.35-4.23,0,0,.33-.27.05-1.12v-.63s.19-.87-.68-1.01l.07-.38s1.53-1.88,2.32-2.33c0,0,.64-.54.84-1.14,0,0,1.88-2.06,2.03-1.5,0,0,1.43-.58,2.55-1.52,0,0,.92-.08,1.2-.79,0,0,1.14.43.92-2.61,0,0,.38-.52-.19-1.43v-.56s.14-2.53-2.83-4.24c0,0-.95-1.34-2.88.92,0,0-1.05.31-1.78,1.5l-.68.12s-.77.24-1.98,1.27l-1.73.1s-.44-.59-.85,1.88c0,0-.53.17-1.23,1.39,0,0-3.55,2.64-4.24,3.72,0,0-.78.45-1.05.16l-1.03-.18s-.22-.39-.62-.99c0,0,0-.67-.17-1.1,0,0,.28-.17-.2-1.08,0,0-.77-2.97-2.77-3.3,0,0-.99-.27-1.62.63,0,0-.48.5-.7,2.22,0,0-.34.05-.8,1.31,0,0-1.23.21-.8,1.2,0,0-.23.79.15,1.19,0,0,.19.82,1.79,1.88,0,0,.1.76.34.94,0,0,.33,2.18,1.83,2.26,0,0,1.83.43,4.24.56,0,0,.44.38,3.09.72,0,0,1.01.28,2.07,1.82l.04,1.23s-.29.84-1.06,1.22c0,0-.68.1-1.04.86,0,0-.99-.07-1.17.49l-2.32-.05s-.63-.37-2.65-.41c0,0-3.2-3.18-5.6-.42,0,0-1.3,1.18-2.38,2.59l-.89.07s-1.19,1.09.73,2.24c0,0,.83.14,1.86.14,0,0,.76.45,1.38.56,0,0,1.23.89,1.51,2.45,0,0-.09.21.16.47,0,0,.32.84.01,1.66,0,0-.96.86-1.57,2.33,0,0-.33-.01-.24-.54,0,0,.2-1.03-1.84.49,0,0-.63-.03-1.04.37,0,0-2.09-.32-2.42.53,0,0-1.18-.29-2.17,1.14,0,0-.84.26-2.12,1.43,0,0-.73.25-1.43,1.08,0,0-3.41,2.2-2.66,4.4l.59.66s.07.46.51.54c0,0,1.27.88,1.5,1.46,0,0,.38.61.8.67,0,0,.6,1.09,1.86-.35,0,0,.29-.36.69-.38,0,0,2.17-.19,2.34-2.39,0,0,.49-.29.9-1.68,0,0,.99-.09,1.87-1.59,0,0,1.31-.34,2.03-.02,0,0,.23.34,1.03.54,0,0,1.41.96,1.16,1.55,0,0,.27.04.09.92,0,0-.48.31-.26,2.07,0,0,.12.39-.32.44,0,0-.36.31-.33,1.14,0,0-1.02.67-1.11,2.11,0,0-.56.23-.85.73l-.07.14-.31.09s-3.71,2.84-3.25,3.73c0,0-.04,1.03,1.56.91,0,0,2.65.26,3.14-.29,0,0,.1-.13.77-.04,0,0,.2.07.97-.02,0,0,.34.11,1.13.02,0,0,1.25.02,2.41,1.08,0,0,.29.53-.09,1.31,0,0-.92.69-1.38,1.66,0,0-.94.2-2.05,1.5h-.67s-.8-.02-1.17,1.48c0,0-.45.27-.27,1.3,0,0,.51.65.65.76,0,0,1.57,1.8,3.18,2.63,0,0,1.18.72,1.63,1.33,0,0,.11,0,.19.37l.25.07s.32-.37.27.23h-.19l-.02.66s-.51.31-.6-.34c0,0-.26-.23-.62-.04l-.76.05s-.88.75-.73,2.94c0,0,.19,1.02,1.29,1.39,0,0,.91.63,2.24-.07,0,0,.92-.62,1.34-1.04,0,0,1.07-.16,1.49,0,0,0,.55.14,1.82.23,0,0,2.39-.01,2.89.14,0,0,1.34.23,1.42.57,0,0,.5.43,1.37.47,0,0,.65.54,1.51.8,0,0,1.03,1.34,2.21.07,0,0,1.05-.02,1.69-.91,0,0,.92-.41,1.24-1.84,0,0,.61-.39.47-1.27,0,0,0-.91.19-1.48,0,0,.31-1.22-.03-1.95,0,0-.07-1.45-1.1-1.42l-.52-.02s-.84-.38-1.28-.38c0,0-.38-.09-.65.02,0,0-1.56.06-1.78.76,0,0-1.27.96-1.58,1.79,0,0-.66.21-2.26-.15,0,0-1.16-.13-1.38-.54,0,0-.39-.17-.39-.35,0,0,.02-.49-.42-.56,0,0-.52-.05.13-.67,0,0,.68-.13.97-.48,0,0,.67.05,1.2-.45,0,0,1.51-.01,2.36-2.43,0,0,.2-.58.56-.6,0,0,1.49-.72-.1-2.25,0,0-.63-.42-.52-1.33,0,0,.07-1.19-.77-1.77,0,0-.11-.45-.46-.73,0,0-.11-1.38-.42-1.41,0,0-.82-.68-.85-1.33,0,0-.22-.76.08-1.15,0,0-.15-.43.6-.24,0,0,1.18-.56,1.84-1.74l1.05-.85s.94-.86,1.49.26c0,0,.31.38.44,1.01,0,0,1.32,4.05,4.57,5.28l1.51,1.54s1,1.23,2.86,1.5c0,0,.99.44,1.39.83,0,0,.31.79,5.11.04,0,0,1.32-.29,1.47-1.79,0,0,.15-3.92-.07-4.53"/>
      <path class="cls-1" d="M233.86,441.46l.82-.06s.45-.35,1.84,1.92c0,0,1.05-.02,1.55.39,0,0,1.17-.02,1.17,1.48,0,0,.57,2.07-.37,2.38,0,0-.13.62-1.24,1.15,0,0-1.67,1.34-2.26,2.64,0,0-.16.88-.34.96,0,0,0,1.69-.61,1.85l-.04.75s-.18.36-.11.57c0,0,.11.92,1.08,2.01,0,0,.29.67.31,1.81,0,0,.67.69.67,1.19,0,0-.2.16-.09.99,0,0,.78,2.58-1.31,4.1l-.02,1.84s.77,0,.75.88l.69-.02s.74-.16.99.58l.45.02s-.11-1.23,1.32-1.08l.36.02s.02-.58.79-.94c0,0,1.08-.9,1.55-1.97,0,0-.05-.55,1.05-1.37,0,0,.45-.2,1.19-2.79,0,0,.11-1.18.99-2.14,0,0,.04-.86.47-1.37l.06-1.97s-.47-.45-.15-1.88c0,0,.06-.85.25-1.1,0,0,.11-.63-.02-1.41,0,0-3.7-2.01-1.55-3.98l.22-.13s.22-2.94,2.4-3.34c0,0,.75-.09,1.13.02,0,0,.96-.04,1.95,2.13,0,0,.26.1,1.09,1.06,0,0,.4.4.63.46,0,0,.28.01,1.11.83,0,0,.49.31,1.37.38,0,0,3.24.47,1.33,3.23,0,0-1.48,1.08-4.15,1.05,0,0-.46.38-1.12.78v.48s.08.47-.04.66l.04.98s-.11.18-.26.29c0,0,.5.46-1.45,2.59,0,0-.02,1.4-.22,1.65,0,0,.92,2.91-.83,3.34,0,0-.63.43-1.35,1.09,0,0-.08.57.31.74,0,0,.72.91.66,1.65,0,0,1.45.69,1.11,3.19,0,0-.09.62.56.78,0,0,.23.12.78.45,0,0,1.55.42.7,1.66,0,0-.49.58-1.12.93,0,0-1.88,1.57-2.05,3.88,0,0,.21.6-.07.87,0,0-.08,1.73-.46,1.53,0,0-.16,1.85-.37,1.59l-.02,1.03s.28,2.18-1.51,2.29c0,0-.42.47-1.08.07,0,0-.85-1.01-1.43-2.01,0,0-.76-1.07-1.59-.91,0,0-2.44-1.36-2.44-4.35,0,0,.32-2.06,1.44-1.97,0,0,.63-1.03,1.8-1.44v-1.25s-.5-.35-.64-.78l-1.05.02s-1.17.59-2.99.78c0,0-.21.83-2.81.88,0,0-.11.75-.43,1.22,0,0,.02.6-.26,1.29l-.02,2.86s.21.2.24,1.75c0,0,.25,2.53-.24,3.83,0,0-.1.51.04.83,0,0,.3.8.14,2.17,0,0,.34,3.06-2.1,3.3,0,0-1.49.35-1.85-.47,0,0-.87-1.11-1.14-1.22,0,0-1.05-.12-.99-1.72,0,0-1.1-1.05-.24-2.47,0,0,.73-1.37.99-1.55,0,0,0-3.56.31-4.21l.03-1.46s.01-.45.64-.73c0,0,.37-1.53-.91-2.02,0,0-1.07-.19-1.73.76,0,0-.72,1.47-1.12,1.8,0,0-.17.43,0,.64,0,0,.29.33-.17.8,0,0-1.86,2.75-2.84,3.78,0,0-1.88,1.73-2.62,1.88,0,0-1.84.99-2.64-.78l-.9-1.76s-.67-.99.37-1.52c0,0-.04-.7,1.01-1.08,0,0,1.72-.94,1.95-1.84,0,0,1.21-1.58,1.59-2.38,0,0,.8-1.95,1.91-2.14l.09-.51s1.79-2.02,3.32-3.15c0,0,.56-1.01.1-1.6,0,0-.91-.66.1-1.34,0,0,.22-.27.48-.25,0,0,.21-1.37,1.6-1.39l.04-.99s-.49-1.42-2.2-1.95c0,0-1.08-.23-1.45-.16,0,0-2.22-1.17-1.36-2.51,0,0,.07-.56-.18-.83,0,0-1.03-.4,2.76-2.26l.19-.65s-.29-.34,1.24-1.68c0,0,.2-.34.13-1.03,0,0-.22-.24.72-.58,0,0,.22-1.1.92-1.7,0,0,.61-.77.47-2.03,0,0-.02-4.1,1.29-5.56,0,0,1.08-2.85,2.87-2.02"/>
      <path class="cls-1" d="M273.88,461.63s-.73-1.77-2.89-1.66c0,0-1.98.02-2.77.71,0,0-.81-.95-1.28-1.06,0,0-.36-.53.15-.87,0,0,2.45-4.55,2.75-4.63,0,0,.54-.94-.26-1.76l-.13-.64h-.81s-.98-2.68-3.32-.77c0,0-1.01.81-2.06,1.31,0,0-.8-.1-1.65.56,0,0-1.46-.56-3.67,1.86,0,0-1.6.14-1.91,1.17,0,0-.14.64.44,1.21,0,0,1.61.31,2.33,2.81v2.75s-.9.47-1.36,1.69c0,0-.68.43-.68.79,0,0-.69.24-1.82,1.15,0,0-1.08.36-1.14,1.59l.03,1.3s.03,1.1,1.27,1.21c0,0,.79.13.96.69,0,0,.18,1.94,1.79,1.51,0,0,.81-.46,1.57-1.26,0,0,1.01-.95,2.17.63,0,0,.28.53.35.89,0,0-.07,1.09.08,1.38,0,0,.29.13.04.63,0,0-.67,1.66-.34,3.6,0,0-.13.03-.07.53,0,0-.04,2.73.07,3.94l.03,1.38s.15.56,0,.73l-.08,2.49s-.25.34-.07.63c0,0-.11.81-.22,1.02,0,0-.46,0-1.3.53,0,0-.64,0-1.14-.66,0,0-1.7-1.39-3.07.07,0,0-1.01.82-1.29,1.55,0,0-.51.07-.26.85,0,0,.18.92,2.27,1.15,0,0,.39.42.93.58,0,0,.78,1.29,2.53,2.42,0,0,.54.27,2.47.35,0,0,2.77.77,2.85-1.38,0,0,.31-.41.39-1.29,0,0,.24-1.03.31-1.53,0,0,.39-1.2-.59-3.71,0,0-.02-1.95.43-2.99,0,0,.11-1.74-.04-2.48,0,0-.1-1.21.19-2.22,0,0,.64-2.72.77-2.94,0,0,.3-1.7.3-2.82,0,0,.19-.33.21-1.27,0,0,.56-1.2.73-1.31,0,0,.14-.99.07-1.63,0,0,.44-.62.44-2.11,0,0,.47-1.51,1.41-1.94,0,0,.76-.25,1.17-.14,0,0,2.67-.85,2.89-2.57,0,0,.45-.92-.19-2.01"/>
      <path class="cls-1" d="M343.93,462.46c-.8-3.85-3.07-3.81-3.07-3.81-.69-.95-1.61-.99-1.61-.99-1.52-.04-2-.95-2-.95-.76-.75-.8-2.43-.8-2.43-.26-.39-.11-.92-.11-.92.73-.13.58-1.16.58-1.16,2.07-2.1,1.85-2.55,1.85-2.55l.13-.3c.52-.82.18-1.21.18-1.21v-.81c.88-2.47.76-3.46.76-3.46.11-2.29-1.23-3.55-1.23-3.55-1.41-1.23-3.54.57-3.54.57-2.26,1.02-2.31,1.48-2.31,1.48.04.2-.41.7-.41.7-1.58.36-2.59.92-2.59.92l-1.41-.04c0-.49-.47-1.34-.47-1.34.12-2.11-.51-2.25-.51-2.25.03-.85-.25-1.55-.25-1.55l.07-1.3c.07-2.86-1.12-2.89-1.12-2.89-2.03-.39-3.04,1.45-3.04,1.45-1.15.81-.75,2.14-.75,2.14.58.1.28.99.28.99-.21-.2-.39.57-.39.57-.36.71-2.71,2.29-2.71,2.29-1.8.88-1.63,1.8-1.63,1.8v.91c-.65.6-.86,1.87-.86,1.87-.55,1.07-.36,4.8-.36,4.8-.09,1.77.45,2.01.45,2.01-.02,1.56.99,1.56.99,1.56,0,.92,1.28,2.53,1.28,2.53.72.32.09,1.2.09,1.2-.45.53-1.62,1.05-1.62,1.05-1.63,1.56-2.69.26-2.69.26-.2-.92-1.37-1.87-1.37-1.87-.18-.59-.6-1.09-.6-1.09v-1.13c.18-.39.33-1.38.33-1.38.46-1.05.03-2.71.03-2.71.07-1.28-.81-1.45-.81-1.45l-.02-3.53c0-.31-.21-.88-.21-.88.17-.39.03-1.21.03-1.21.14-.04.29-.98.29-.98.65-.43.42-2.72.42-2.72.45-.2.29-1.76.29-1.76.29-2.64-1.3-2.33-1.3-2.33-2.24-.84-2.42.93-2.42.93.16,1.54-.69,1.75-.69,1.75v.33c.26,0,.32,1.87.32,1.87.18.31.07.63,0,.73-.07.11-.22,1.41-.22,1.41-.47.85-.64,3.5-.64,3.5-.8,1.84-3.01,1.79-3.01,1.79-1.55-2.75-2.42-2.78-2.42-2.78-2.05-.53-2.15,2.07-2.15,2.07-2.32.6-1.66,6.11-1.66,6.11.18.07.09.39.09.39-.72,1.58.58,3.45.58,3.45l-.03.92c-.62,1.27.39,1.96.39,1.96l-.11.9c-.47.07-.96.83-.96.83l-.81.19c-.31.45-.23,1.02-.23,1.02-1.6,1.12-1.78,2.23-1.78,2.23-2.31,2.21-2.65,3.61-2.65,3.61-.34.76-.29,1.71-.29,1.71-1.93,2.68-1.3,3.9-1.3,3.9-.67.9-.34,2.31-.34,2.31l.15,1.08c.34,2.4,2.31,1.64,2.31,1.64,2.42-.27,2.76-1.93,2.76-1.93.82-1.08,1.1-3.74,1.1-3.74.62-1.24,1.85-1.87,1.85-1.87,3.54-1.97,5.3-4.02,5.3-4.02,1.48-.36,3.8-2.09,3.8-2.09.07-.38,1.01-.95,1.01-.95,5.42-2.61,11.57-4.05,11.57-4.05,2,0,3.25-.54,3.25-.54,5.35.28,6.65-.53,6.65-.53,1.85-.36,4.44.43,4.44.43-.1,1.21.69,1.45.69,1.45.36.49,0,1.51,0,1.51-.28.25-.43,1.17-.43,1.17-.72,1.63-.07,2.19-.07,2.19,4.19,1.59,6.5-1.87,6.5-1.87,1.66-1.05,1.19-3.52,1.19-3.52ZM324.11,446.69s.34-.34-.34-.57c0,0,.36-.18.48,0,0,0,.19.14.19.29,0,0-.23.16-.34.28ZM331.45,448.69s-.32,0-.32.81c0,0-.25.11-.23.32v.96s-.22.36-.04.77c.16.39,0,.09,0,.09v1.51s-.09.22.26.51v.22h-.17s-.23.76.27.95v.46s-1.09.83-1.37,1.52h-1.77s-.41-.45-.74-.65c0,0,0-.87-.36-1.73,0,0-.05-1.05.26-1.26,0,0,.46-1.93.46-2.98,0,0,.18-3.29,1.08-3.23,0,0,.8-.2,1.55-.02,0,0,.19.37.6.47,0,0,.5.29.55.47l-.02.78Z"/>
      <path class="cls-1" d="M311.1,481.95h-.02s.02-.01.02-.01h0ZM334.62,478.47c-.45-.56-1.63-.99-1.63-.99-.71-.21-.95.09-.95.09-.36.08-.79-.07-.79-.07-1.34-1.01-1.82-.49-1.82-.49-.3.12-.58,0-.58,0-.99-.47-1.6.15-1.6.15-.51.39-.73.08-.73.08-.16-.97-.58-1.11-.58-1.11-.16-.5,0-1.11,0-1.11,2.61-.96,2.09-3.72,2.09-3.72.17-.49.05-1.34.05-1.34.05-.22-.07-1.12-.07-1.12.07-.35,0-.88,0-.88-.87-1.51-2.83-.9-2.83-.9-1.02.42-1.78,1.67-1.78,1.67-.81.22-1.03.78-1.03.78-.91,0-1.66.38-1.66.38-.16.33-.74.56-.74.56-.76,0-1.01.28-1.01.28-2.04.13-1.83-.09-1.83-.09-1.22-.1-1.6-.62-1.6-.62-2.16-.66-3.2,1.36-3.2,1.36-.12.36-.46.76-.46.76-.83,1.01.29,2.09.29,2.09.66,1.82,2.65,1.47,2.65,1.47h2.44c.28.46.99.58.99.58l.02.79c.07.3-.02.65-.02.65.13.21-.07,1.33-.07,1.33-1.54.12-1.41.52-1.41.52-1.12.12-2.07.51-2.07.51-3.19.54-3.65,1.28-3.65,1.28l-.37.83c-.36.05-.78.31-.78.31l-.11.43c-.56.04-.92.66-.92.66-.3.4-.78.66-.78.66-1.83,1.46-.41,2.21-.41,2.21.84.52,2.65.14,2.65.14.25-.06,3.06-1.8,3.06-1.8,3.37-.19,4.26-1.56,4.26-1.56.75-.26,2.28.01,2.28.01,2.16.41,2.64,1.57,2.64,1.57.04,2.72-.2,4.2-.2,4.2-1.14,1.36-1.37,2.41-1.37,2.41-.09.82-.2,2.4-.2,2.4-1.27.8-1.65,2.01-1.65,2.01-.5.9-1.27,1.45-1.27,1.45-.94.12-.96.42-.96.42-.82.84-2.4,1.39-2.4,1.39-.66.34-.31,1.48-.31,1.48,1.32,2.12,2.99,2.3,2.99,2.3,2.63,0,5.46-4.14,5.46-4.14.23-.01.96-.65.96-.65.32-.26.75-.72.75-.72,2.21-1.98,3.06-3.31,3.06-3.31.63-.36.3-1.13.3-1.13.44-1.52.73-2.97.73-2.97.36-1.05.31-1.65.31-1.65.26-.54.32-1.31.32-1.31.78-2.02.43-1.88.43-1.88-.21-.09-.35-.23-.35-.23.25-.28.16-.84.16-.84.07-1.1,1.11-.95,1.11-.95l3.24.04c1.45-.16,1.7-1.21,1.7-1.21,1.17-3.14-.74-3.45-.74-3.45"/>
      <path class="cls-1" d="M417.57,490.57l-.66-.42c-.57-1.73-1.85-1.38-1.85-1.38-.25-.35-1.26-.25-1.26-.25-.07-.36-.94-.42-.94-.42-.99-.07-1.52,1.45-1.52,1.45-2.49.38-3.6,1.77-3.6,1.77h-.51c-.85-.29-1.17,0-1.17,0h-2.33c-.87-.29-.99-.07-.99-.07h-.54c-1.2-.36-2.11-.26-2.11-.26-4.12-2.22-3.83-2.57-3.83-2.57-.18-1.24.04-3.25.04-3.25.18-.57.51-1.8.51-1.8.83-1.51.57-3.34.57-3.34.29-.47.63-1.76.63-1.76,1.98-1.64,1.52-2.33,1.52-2.33.82-.84,1.51-2.3,1.51-2.3.72-.43,1.59-.84,1.59-.84.6-1.45-.4-1.2-.4-1.2-.83-.46-1.55-.42-1.55-.42-1.52-1.4-4.42,1.63-4.42,1.63-1.55.77-2.42.31-2.42.31-2.24-.13-1.55-.81-1.55-.81.29-.28.42-1.45.42-1.45.63-.56.69-.92.69-.92.47-1.41,2.02-2.48,2.02-2.48.72,0,1.55-.63,1.55-.63,2.35-.58,3.7-2.2,3.7-2.2.42-1.83-.11-2.13-.11-2.13-1.48-1.03-2.56.02-2.56.02-.96.47-1.05.74-1.05.74-.99.15-1.3.49-1.3.49l-1.59.22c-1.37.35-1.82.81-1.82.81-1.43.31-1.97,1.09-1.97,1.09-.81.04-1.17.67-1.17.67-2.02,1.3-1.04,3.01-1.04,3.01.32.21.14.74.14.74-.29,1.55-3.25,4.13-3.25,4.13-3.18-.26-3.11,1.02-3.11,1.02.25.28-.14.64-.14.64-.29.1-.04,1.01-.04,1.01-.1,1.24,1.27,2.47,1.27,2.47,2.68,1.24,5.03.18,5.03.18l1.5.08c2.17.46,1.19,2.33,1.19,2.33-.38.1-.64.49-.64.49.11.52-.73,1.27-.73,1.27-1.04.61-1.98,1.72-2.1,1.75-.42.16-1.84,1.52-1.84,1.52-.57.03-.94.74-.94.74-.91.08-1.01.25-1.01.25.15.88-1.67,2.79-1.67,2.79-1.01.04-.39,1.28-.39,1.28,1.48,2.88,3.84.03,3.84.03.21-.67.97-1.74.97-1.74l.57-.21c-.04-1.79,2.39-3.17,2.39-3.17.54-.3,1.34-.3,1.34-.3.32-.43,1.51-.33,1.51-.33,1.63.81,1.48,1.55,1.48,1.55.14,1.77.54,3.04.54,3.04,1.88,3.16,4.02,3.81,4.02,3.81,1.91.8,4.35.1,4.35.1,2.29-.59,3.23,1.27,3.23,1.27.41.92,3.36.45,3.36.45,1.84-.2,5.09.12,5.09.12,1.91.2,2.28-1.45,2.28-1.45.85-.54,1.7-2.05,1.7-2.05.09-.78-.47-2.79-.47-2.79ZM407.19,493.53c-.76-.24-1.19.11-1.19.11v-.31l.35-.11c.21-.09.08-.38.08-.38,1.59-.36,1.59.46,1.59.46-.29.5-.83.24-.83.24Z"/>
      <path class="cls-1" d="M380.95,445.79c-.75-3.1-2.93-1.97-2.93-1.97-.58.39-1.77.64-1.77.64-.54-.03-1.26.25-1.26.25-.3.42-2.35,1.62-2.35,1.62-1.38.32-3.5,1.94-3.5,1.94-2.58-.28-2.94.2-2.94.2-4.15.82-2.06,2.62-2.06,2.62.84.78.37.67.37.67-.21-.03-.21.21-.21.21,1.26.59,2.02,2.24,2.02,2.24l.11,2.3c.22.39.22,1.41.22,1.41l-.34.13c-.22,1.08,0,1.21,0,1.21.34.63,0,1.56,0,1.56-.13.05-.22.25-.22.25l.16.76c.21.11-.11.99-.11.99-2.74,4.88-1.3,7.84-1.3,7.84.31.36.29,1.23.29,1.23-.4,1.17-.55,2.12-.55,2.12-.35.43-.32,1.55-.32,1.55-.29.57-.29,1.34-.29,1.34l-.25.07c-.27,1.65.05,2.81.05,2.81.96,1.1,1.22,2.79,1.22,2.79.21,1.1-.04,1.17-.04,1.17,0,2.53-.86,3.7-.86,3.7-.73,1.24.53,2.01.53,2.01.47-.17,1.78,1.18,1.78,1.18,1.95,2.01,3.04-.21,3.04-.21.65-1.73-.05-1.59-.05-1.59-.69-.29-.29-1.02-.29-1.02,1.08-1.76.73-1.97.73-1.97-.32-.28-.21-1.1-.21-1.1.11-.48.04-.97.01-1.11,0-.04,0-.09,0-.19.05-.54-.18-1.37-.18-1.37-.42-.32-.36-1.14-.36-1.14.58-2.4-.13-3.45-.13-3.45v-.46c.07-1.48-.11-1.65-.11-1.65l-.07-.77c.36-.6.31-1.85.31-1.85.25-.76.07-1.37.07-1.37-.17-.89,0-1.76,0-1.76.76-.88.4-2.48.4-2.48-.28-.28-.04-.49-.04-.49.45-.1.45-.74.45-.74-.05-.29.32-.71.32-.71.44-.35,3.47-3.06,3.47-3.06,1.27.42,2.27-1.45,2.27-1.45,1.49.03.84-.78.84-.78-.3-.23,0-.59,0-.59.72-.92.92-2.63.92-2.63,1.06-.57.66-1.8.66-1.8-.07-1.55-.32-1.77-.32-1.77l-.02-.31c.28.04.35-1.49.35-1.49.69-.63,1.04-1.47,1.04-1.47.11-.63,1.34-1.63,1.34-1.63,1.01-1.38.1-2.4.1-2.4ZM371.71,458.14s.56-1.7-.44-1.49c0,0,1.65-.44.79-.95,0,0,1.29-.64.97.22l-1.31,2.23Z"/>
      <path class="cls-1" d="M410.05,454.68c-2.49-4.27-4.7-5.08-4.7-5.08l-.4-.18c-1.77-.84-4.76,1.09-4.76,1.09-1.82.68-3.99,2.26-3.99,2.26-.58.59-.88.49-.88.49l-.68.1c-2.01.59-2.57.34-2.57.34-2.24-.06-2.42-.82-2.42-.82-.21-2.51.51-2.15.51-2.15-.02-1.03.9-1.97.9-1.97.9-.61,2.24-1,2.24-1,.16-.03,3.11-.15,3.11-.15,1.11-.03,1.03-1.22,1.03-1.22v-1.1c1.02-.59.92-1.94.92-1.94,0-.7-.25-1.12-.25-1.12-.04-1.59-.85-1.51-.85-1.51-1.33-.51-1.98.23-1.98.23-.9.25-1.22.77-1.22.77l-.04.71c-.75.39-.88.92-.88.92-.35.56-.92.92-.92.92-.91.43-1.52,1.34-1.52,1.34-.33.64-.92,1.25-.92,1.25-.35.17-.82,1.02-.82,1.02-.47.43-2.35,2.71-2.35,2.71-.57.46-.71.92-.71.92-.12.97.17,4.52.17,4.52-.36.83-.51,1.58-.51,1.58-.65.49-.83,1.09-.83,1.09-2.18,1.02-2.71,2.47-2.71,2.47-1.69,2.56.99,3.74.99,3.74,2.02-.1,1.66-2.93,1.66-2.93.25-.18,1.11-.95,1.11-.95,1.27-.36,1.2-.66,1.2-.66,1.56-.26,1.93-1.64,1.93-1.64.02-1.09,1.47-1.4,1.47-1.4.33-.33,1.2-.04,1.2-.04,2.33.22,3.09-1.63,3.09-1.63,1.37-.62,3.48-1.92,3.48-1.92.86-.37,3.8-.11,3.8-.11.07.34,1.09.71,1.09.71.07,1.73,1.19,2.12,1.19,2.12.21,1.29.57,1.01.57,1.01l.64.04c2.79,1.22,4.82-1.94,4.82-1.94.28-.49-.21-.88-.21-.88"/>
      <path class="cls-1" d="M43.24,468.1s-.19.71-.76.62c0,0,.38,2.56-.4,2.41,0,0-.03.88-.42.94l.02.68s.27.09.26,2l.33.06s.38,3.13-.25,2.8v.86s1.08,1.67-.37,3.28c0,0,.25,2.85-.45,2.62,0,0,.15,1.87-1,2.3,0,0,.3,1.03-.43,1.05,0,0-.82.27-.86.66,0,0,.06.39-1.61.08,0,0,.21.55-2.5.37,0,0-.66.86-1.56,1.12l-.16.53s-.8.57-1.63-.09c0,0-.61-.03-.92-.48l-.07-.85s-.76-.03-.27-.83c0,0,.06-.56.24-.7,0,0,.2-.26-.29-.97,0,0-.31-.38-.09-1.76,0,0,.66-2.03,3.26-3.3,0,0,.96-.47,1.38-2.2,0,0,.29-1.01-.38-2.2,0,0,0-.53-1.19-.83,0,0-.69-.07-.52-2.04,0,0-.02-.45,1.1-1.12,0,0,1.86-2.15,2.68-1.81,0,0,2.15-1.13,2.8-2.33,0,0-.16-1.41.45-1.81,0,0,.06-.9.75-1.37,0,0,.97-1.65,2.2-.42,0,0,.32.25.4,1.09,0,0,.38.02.25,1.64M29.36,469.02c-.26.55-.85.87-.85.87-.92.25-1.04-.16-1.04-.16-1.03-.09-1-.54-1-.54-.25-.19,0-.38,0-.38l.15-.42c.14-.47.61-.8.61-.8.42-.53.8-.07.8-.07l.54.02c.3.37.8.35.8.35v1.11ZM15.88,478.85c-1.95.42-2.02,1.66-2.02,1.66-.56.19-.76.45-.76.45h-2.8c-.16-.72-.84-1.09-.84-1.09v-1.98c.38-.04.29-1.02.29-1.02.07-1.67.48-2.03.48-2.03.4-.59,1.13-.58,1.13-.58,1.15-.34,1.35-.07,1.35-.07.29.07.44-.04.44-.04.76-.17,1.14.27,1.14.27,2.14.17,2.53,1.05,2.53,1.05,1.33,2.62-.94,3.39-.94,3.39M51.6,466.83s.21-.69.16-2.06c0,0,.79-1.51.35-3.64,0,0-1.92-3.92-5.87-5.95,0,0-1.54-.32-2.56.62,0,0-.69.1-3.67,2.64,0,0-1.77-.03-3.44,2.03,0,0-1.57-.18-2.52.36,0,0-3.83-.26-4.1,1.21,0,0-1.95.61-3.34.18,0,0-4.39-2.77-1.94-4.79,0,0,1.25-1.34,2.17-1.76,0,0,.33-.28.69-.3,0,0,.6-.02,0-.55,0,0-.53-.48.69-.9,0,0,.55-1.18,2.3-2.45,0,0,1.68-1.23,3.84-2.22,0,0,1.36-1.5,2.38-2.26,0,0,1.12-.66,1.14-1.99,0,0,.48-2.43,1.02-3.02,0,0,1.42-2.49-2.06-3.69,0,0-2.14-.8-2.55-3.43,0,0-.43-2.15-3.04-2.9,0,0-.86-.87-1.77-.29,0,0-.9-.11-1.25-.05,0,0,.06-.54-.61-.19,0,0-.06-.11-.4.37,0,0-1.98,1.45-2.06,4.23,0,0-.56.25-.62,1.75,0,0-.58,2.03.38,1.99,0,0-.13,1.16.61,1.74,0,0-2.22,1.58-3.54,3.85,0,0-.82.52-1.73,2.11,0,0-.5.04-1.15.54,0,0-1.22.15-2.09,1.13,0,0-1.04-.09-1.68.49,0,0-.38-.1-1.48.15l-1.5.02s-.97-.39-1.75.23c0,0-2.07.08-3.39.26,0,0-3.91.73-2.8,4.08,0,0,.59,1.36,2.29,1.59,0,0,2.9.3,4.89.44,0,0,.82.48,2.05.53,0,0,.61.85,2.1,1.37,0,0,.9.85,2.25,1.94,0,0,.78.73-.21,1.31,0,0-.66.12-.36.67,0,0-.02.29-.3.56,0,0-.85,1.76-1.96,2.79,0,0-1.52.2-.8.89,0,0,.52.36-.34.66,0,0-3.8.1-5.26.34,0,0-1.5.18-1.48-.29,0,0-1.16-1.05-3.08-.11,0,0-2.65.63-2.4,2.01,0,0-.73.4-1.04,1.89,0,0-.19.35-.48.54,0,0-.91.55.29,2.7,0,0,.43.59.07,1.39,0,0-.59.34-.19,1.18,0,0,.24,1.25,1.01,2.06l-.03,1.31s-.43.69.06,1.64l-.02,1.29s-.54,1.42,1.5,3.06c0,0,.03.86.86,1.57,0,0,.12,2.57,1.68,3.33,0,0,.34,1.69,1.97,2.44,0,0,1.22.81,3.24,1.64,0,0,2.4,1.61,2.84-1.26,0,0,.2-.8,1.06-2.03,0,0,.92-2.4-.87-4.52,0,0-.44-.89.15-1.84,0,0,.34-.62,1.3-.97,0,0,.87.49,2.96-.83,0,0,.63-.32,2.31-.36,0,0,.46-.35,3.08-.09,0,0,.71.22,1.34,1.35,0,0,.61,2.31-.3,3.8,0,0-1.61.55-3.2,2.58,0,0-.93,0-1.41.18,0,0-.76.34-1.23,1.51,0,0-.3.71.07,1.55,0,0,1.09,2.12,2.43,1.7,0,0,.14.39.99,1.04,0,0,.14.67,0,1.56,0,0-.77.19-1.73,2.3,0,0-1.16.74-.99,2,0,0,.23.6,1.25,1.2,0,0,1.32,1.22,2.53,1.54,0,0,1.81,1.72,3.18-.36,0,0-.04-.42.46-.92,0,0,.2-.95,1.14-1.49,0,0,1.17-.3,1.08-3.04l.02-1.1s.17.02.26-1.79c0,0,.42-.34.68-1.57,0,0,.68-.59.81-.9l1.26-.02s.48-.09.92,1.22c0,0-.05,1.91,1.36,1.47,0,0,1.12.47,3.04,1.96,0,0,2.25,1.64,4.4-.26,0,0,2.88-3.1,3.9-7.39,0,0,.09-.67,1-1.37,0,0,.74-.49.49-2.02,0,0,1.6-1.3,2.44-4.99,0,0-.36-.44.18-.78,0,0,.27.05.44-3.35,0,0,.32-1.68.41-4.54,0,0,.01-1.06.64-1.97,0,0,.77-1.09.06-3.56,0,0-.16-1.34.11-1.88"/>
      <path class="cls-1" d="M79.86,486.17s.14-1.6,1.55-2.21c0,0,1.03-1.38,4.14-2.43,0,0,.48-.08.63-.27,0,0,.39-.63,1.81-.67,0,0,2.17-.09,2.53,3.58,0,0,.15,1.96-.77,3.18,0,0-.81,1.66-1.75,2.52,0,0-.38.83-1.2,1.67,0,0-1.63,2.48-3.93.74,0,0-1.19.27-1.61-1.09l-.38-.04s-2.58-2.01-2.08-3.08c0,0,.16-.78,1.08-1.9"/>
      <path class="cls-1" d="M112.3,486.83s1.39,1.76,1.76,2.72c0,0,.71,1.82,2.09,1.68,0,0,.21-.14.58-.01,0,0,.33.39,1.75.01,0,0,.18-.13.67-.13,0,0,.5-.01.83-.43,0,0,1.7-.63,2.99-2.8,0,0,.6-.72,1.1-1.67,0,0,.09-.21.33-.39,0,0,.21-.19.23-.58l-.27-.09v-.45s.33-.06.27-.54l-.27-.07s-.48-1.56-1.06-2.31c0,0,.19-.45-.36-1.12,0,0-.72-1.76-2.11-2.02,0,0-.76-1.3-1.63-1.55l-.89-.14s-.05-.27-1.15-.24c0,0-2.94-.08-3.07.27,0,0-.88.57-1.11,1.96,0,0-.26-.1-.23.87,0,0,.02.17.26.25,0,0,0,.73.6.95v1.56s-.9.19-1.05,1.76c0,0-.25.18-.22.58,0,0-.38.59-.04,1.92"/>
      <path class="cls-1" d="M100.02,470.73c.31-.29.79-.12.79-.12-.08.12.29.3.29.3.41.07.17.67.17.67-.04.15-.12.29-.12.29-1.58.34-1.54-.23-1.54-.23-.07-.48.1-.64.1-.64-.21-.16.32-.27.32-.27M102.66,469.07c.41-.49.74-.74.74-.74.33-.09.99-.58.99-.58,1.42-.14,1.88-1.37,1.88-1.37.37-.51.5-.74.5-.74.52-.36.85.02.85.02l.64.08c.41.57-.31.62-.31.62-.31,1.21.15,1.94.15,1.94-.13.53-.44.28-.44.28-.79-.16-1.34.96-1.34.96-.1.4-1.42.49-1.42.49-1.55.29-1.64.04-1.64.04-.39-.09-.61-.36-.61-.36-.3-.34,0-.65,0-.65M98.4,496.45l-.46.02c-.63-.38-.72-1.13-.72-1.13.05-.49.48-.23.48-.23.44.06.69.63.69.63.18.35.01.71.01.71M96.75,495.01s-.49-.12-.34-.48l.41.03-.06.45ZM118.95,447.81s-2.43-4.24-5.09-2.76c0,0-.51-.07-1.19.87,0,0-.89.05-2.11,1.61l-.66.25s-.39.14-.74.44c0,0-1.14.43-2.48,1.63l-.48.16s-1.64.47-1.83.76c0,0-.58-.14-1.79.85,0,0-.62.13-1.69.65,0,0-2.26.24-4.1,1.55,0,0-.82-.22-1.64.06,0,0-.86-.06-1.15.23,0,0-.96.14-1.2-.44,0,0-.2-.37-.68-.74,0,0-.38-.57.19-1.27,0,0,.39-1.06,1.02-1.43,0,0,1.59-.11,2.64-1.56,0,0,4.11-1.49,5.74-2.8,0,0,.39-.33,1.3-.24,0,0,1.09.02,1.88-.38,0,0,2.25-.33,3.16-3.78,0,0,.79-1.31-1.53-3.01,0,0-1.18-.76-1.33-1.19,0,0-1.31-1.97-3.33-1.8h-1.01s-1.16,0-1.88,3.48c0,0-.37.79-.43,1.18,0,0-.99,1.58-2.17,3.03,0,0-1.06-.02-1.85,1l-.6.14s-.52.24-2.24,2.24l-.58.04-.14.53-2.53,2.61s-.61.04-.76,1c0,0-.47.66-.76.85,0,0-.65-.04-1.34,1.37,0,0-.33.35-.33,1.05,0,0-3.02,2.26-4.2,4.11,0,0-.58-.06-1.34.82,0,0-1.22.11-1.55-.17,0,0-1.41-.43-2.06.2,0,0-1.06.49-2.12,1.93,0,0-1.14,1.69-.02,1.87,0,0,.26.88,1.64.88,0,0,.48.36.91.62,0,0,.2.5.87.82l1.16,1.18s1.49,2.84,3.23-.52c0,0,0-1.26.79-1.4,0,0,.85-.85,1.45-.79,0,0,2.45-.83,5.18-3.33,0,0,1.33-.75,2.1.03,0,0,.55.5.88,1.17,0,0-.09,1.98.19,2.22,0,0-.09,1.39.32,1.46v3.62s-.54,1.13.12,1.78c0,0,.11.31-.16.56,0,0-.3.25.1.74,0,0-.15,1.03.18,1.03,0,0-.31.28-.17,1.64,0,0-.3.21.1,1.02,0,0,.53,1.24,1.27,1.09,0,0,.94.93,2.34,1.22,0,0,.72.49,1.06,1.17,0,0,.15.4.65.61,0,0,1.23,1.17,1.38,3.61,0,0,.09,1.37-.12,2.58,0,0-.12.2-.12.45l-.02,1.28s-.13.35-.63.45c0,0-.38-.19-.86,1.05,0,0-.66.99-1.42,1.44,0,0-.44.49-.72.07,0,0-.94-.28-2.1.94,0,0-3.13,1.72-2.43,3.3,0,0,.06.67.61,1.5,0,0,.34,1.18,1.89,1.55,0,0,.15.66,3.5,1.54,0,0,.77-.04,1.32,1,0,0,.75.76,1.45.97,0,0,1.11,2,2.57-.81,0,0,1.15-1.01,1.18-3.9,0,0,.48-1.43.73-2.31,0,0,.43-3.07-.52-6.94,0,0,0-1.23.27-1.57,0,0,.59-1.33-.29-2.38,0,0,.07-1.03.2-3.24,0,0,.35-2.47.41-3.73,0,0,.09-1.46,1.25-1.74,0,0,1.12-.94,1.8-.94,0,0,4.15-1.59,5.91-6.48,0,0,.14-.63.07-1.37,0,0-.07-1.37.07-1.88,0,0,.91-2.15-1.45-4.17,0,0-.41-1.28-1.84-1.01l-.3-.25s-1.62-.16-2.03.58c0,0-3.11,2.38-3.33,3.66,0,0-1.43-.35-1.27.88,0,0-.5.25-.79.66,0,0-1.48.26-2.7.02,0,0-1.37.29-2.1-2.18,0,0,.06-.58-.35-.87l.07-2.2s.31-.97.99-.97c0,0,2.02-1.85,2.9-2.18,0,0,.19-.02,1.21-.61,0,0,2.81-1.73,4.07-2.85,0,0,.77-.66,1.68-.96,0,0,.91-.41,1.52-.41,0,0,2.16-.11,2.24-.56,0,0,.48-.19,1.23.07,0,0,.38.36,1.96.07,0,0,5.66.91,3.73-2.9"/>
    </g>
    <g>
      <path class="cls-1" d="M2.5,536.88H.25v-17.19h2.79l8.61,13.97v-13.97h2.25v17.19h-2.55l-8.85-14.02v14.02Z"/>
      <path class="cls-1" d="M22.55,519.69h2.65l6.17,17.19h-2.5l-1.75-4.98h-6.86l-1.81,4.98h-2.4l6.49-17.19ZM21.01,529.84h5.41l-2.65-7.62h0l-2.77,7.62Z"/>
      <path class="cls-1" d="M35.77,536.88h-2.25v-17.19h2.79l8.61,13.97v-13.97h2.25v17.19h-2.55l-8.85-14.02v14.02Z"/>
      <path class="cls-1" d="M56.92,519.69h2.33v12.36c0,1.69-.43,3-1.28,3.92-.85.92-2.07,1.38-3.64,1.38s-2.85-.43-3.72-1.29c-.87-.86-1.27-2.04-1.2-3.54v-1.19h2.18v1.19c0,.91.23,1.62.68,2.11.45.5,1.1.74,1.93.74s1.51-.3,2-.89c.49-.6.74-1.41.74-2.43v-12.36Z"/>
      <path class="cls-1" d="M63.14,519.69h2.33v17.19h-2.33v-17.19Z"/>
      <path class="cls-1" d="M71.69,536.88h-2.25v-17.19h2.79l8.61,13.97v-13.97h2.25v17.19h-2.55l-8.85-14.02v14.02Z"/>
      <path class="cls-1" d="M94.06,537.35c-2.38,0-4.31-.83-5.79-2.5-1.47-1.66-2.21-3.85-2.21-6.55s.75-4.9,2.26-6.57c1.5-1.67,3.47-2.5,5.91-2.5,1.88,0,3.49.53,4.85,1.58,1.35,1.05,2.15,2.4,2.38,4.05h-2.25c-.22-1.14-.77-2.02-1.66-2.64-.89-.62-2.04-.93-3.46-.93-1.68,0-3.03.65-4.07,1.95-1.04,1.3-1.56,3-1.56,5.1,0,2.24.5,3.97,1.5,5.19s2.41,1.84,4.24,1.84,3.2-.65,4.29-1.94c.17-.2.33-.42.47-.64.19-.3.34-.73.47-1.27s.19-1.06.19-1.56v-.21h-5.39v-1.96h7.53v9.1h-1.45l-.56-2.16-.13.15c-1.41,1.66-3.27,2.49-5.57,2.49Z"/>
      <path class="cls-1" d="M125.63,530.58c0,2.12-.6,3.78-1.79,4.98-1.19,1.2-2.85,1.8-4.97,1.8s-3.89-.57-5.04-1.72c-1.15-1.15-1.73-2.83-1.73-5.05v-10.89h2.33v10.71c0,1.6.38,2.81,1.13,3.64s1.86,1.25,3.31,1.25,2.55-.42,3.3-1.25c.75-.83,1.13-2.04,1.13-3.64v-10.71h2.33v10.89Z"/>
      <path class="cls-1" d="M131.57,536.88h-2.25v-17.19h2.79l8.61,13.97v-13.97h2.25v17.19h-2.55l-8.85-14.02v14.02Z"/>
      <path class="cls-1" d="M146.97,519.69h2.33v17.19h-2.33v-17.19Z"/>
      <path class="cls-1" d="M151.93,519.69h2.59l4.93,14.7h.01l4.91-14.7h2.58l-6.26,17.19h-2.5l-6.26-17.19Z"/>
      <path class="cls-1" d="M169.48,536.88v-17.19h12.57v2.06h-10.24v5.25h9.36v2.06h-9.36v5.77h10.37v2.06h-12.7Z"/>
      <path class="cls-1" d="M185.5,519.69h8c1.82,0,3.21.4,4.16,1.19.95.79,1.43,1.95,1.43,3.48s-.5,2.68-1.49,3.53c-.25.21-.52.4-.81.56l.39.19c1.04.6,1.59,1.61,1.63,3.03l.09,3.13c.02.51.08.88.2,1.11.12.23.34.42.68.58v.37h-2.86c-.06-.14-.12-.51-.19-1.1s-.11-1.25-.14-1.98l-.05-1.36c-.03-1.07-.29-1.83-.78-2.29s-1.29-.68-2.41-.68h-5.52v7.41h-2.33v-17.19ZM187.83,527.45h5.75c1.08,0,1.86-.24,2.36-.71.5-.47.75-1.22.75-2.24s-.26-1.72-.79-2.18c-.53-.46-1.36-.69-2.5-.69h-5.58v5.81Z"/>
      <path class="cls-1" d="M212.99,524.67c-.1-1.08-.53-1.92-1.28-2.51s-1.76-.88-3.03-.88-2.3.25-2.98.76c-.68.51-1.02,1.25-1.02,2.22,0,.66.23,1.16.68,1.49s1.36.65,2.72.97l2.99.71c1.61.38,2.75.95,3.44,1.7.69.74,1.03,1.79,1.03,3.15,0,1.56-.59,2.8-1.77,3.71-1.18.91-2.78,1.37-4.8,1.37-2.25,0-4-.53-5.26-1.58-1.23-1.04-1.85-2.46-1.85-4.26v-.13h2.14c.04,1.25.49,2.21,1.36,2.89.87.68,2.07,1.02,3.62,1.02,1.43,0,2.51-.25,3.25-.74.74-.49,1.11-1.21,1.11-2.16,0-.83-.24-1.44-.73-1.84-.48-.39-1.46-.76-2.93-1.11l-3-.71c-1.51-.36-2.6-.86-3.24-1.5-.64-.64-.97-1.52-.97-2.65,0-1.65.56-2.95,1.68-3.91,1.12-.96,2.63-1.44,4.53-1.44s3.47.48,4.62,1.45c1.15.97,1.76,2.3,1.84,4h-2.14Z"/>
      <path class="cls-1" d="M218.84,519.69h2.33v17.19h-2.33v-17.19Z"/>
      <path class="cls-1" d="M229.47,521.75h-5.81v-2.06h13.95v2.06h-5.81v15.13h-2.33v-15.13Z"/>
      <path class="cls-1" d="M244.78,530l-6.49-10.31h2.72l4.93,8.35h0s4.94-8.35,4.94-8.35h2.69l-6.48,10.35v6.84h-2.33v-6.88Z"/>
      <path class="cls-1" d="M263.83,534.85c-1.54-1.66-2.32-3.85-2.32-6.55s.77-4.9,2.32-6.57c1.54-1.67,3.56-2.5,6.06-2.5s4.54.83,6.08,2.5c1.54,1.67,2.31,3.86,2.31,6.57s-.77,4.89-2.31,6.55c-1.54,1.66-3.56,2.5-6.08,2.5s-4.51-.83-6.06-2.5ZM274.23,533.36c1.1-1.29,1.65-2.97,1.65-5.06s-.55-3.79-1.65-5.08c-1.1-1.29-2.55-1.94-4.34-1.94s-3.23.65-4.33,1.94c-1.1,1.29-1.65,2.98-1.65,5.08s.55,3.78,1.65,5.06c1.1,1.29,2.54,1.93,4.33,1.93s3.24-.64,4.34-1.93Z"/>
      <path class="cls-1" d="M281.27,536.88v-17.19h11.9v2.06h-9.58v5.25h8.38v2.06h-8.38v7.82h-2.33Z"/>
      <path class="cls-1" d="M306.64,521.75h-5.81v-2.06h13.95v2.06h-5.81v15.13h-2.33v-15.13Z"/>
      <path class="cls-1" d="M316.97,519.69h2.33v7.05h8.97v-7.05h2.33v17.19h-2.33v-8.08h-8.97v8.08h-2.33v-17.19Z"/>
      <path class="cls-1" d="M334.48,536.88v-17.19h12.57v2.06h-10.24v5.25h9.36v2.06h-9.36v5.77h10.37v2.06h-12.7Z"/>
      <path class="cls-1" d="M361.88,519.69h2.65l6.17,17.19h-2.5l-1.75-4.98h-6.86l-1.81,4.98h-2.4l6.49-17.19ZM360.33,529.84h5.41l-2.65-7.62h0l-2.77,7.62Z"/>
      <path class="cls-1" d="M373.13,519.69h8c1.82,0,3.21.4,4.16,1.19.95.79,1.43,1.95,1.43,3.48s-.5,2.68-1.49,3.53c-.25.21-.52.4-.81.56l.39.19c1.04.6,1.59,1.61,1.63,3.03l.09,3.13c.02.51.08.88.2,1.11.12.23.34.42.68.58v.37h-2.86c-.06-.14-.12-.51-.19-1.1-.06-.59-.11-1.25-.14-1.98l-.05-1.36c-.03-1.07-.29-1.83-.78-2.29-.49-.46-1.29-.68-2.41-.68h-5.52v7.41h-2.33v-17.19ZM375.45,527.45h5.75c1.08,0,1.86-.24,2.36-.71.5-.47.75-1.22.75-2.24s-.26-1.72-.79-2.18c-.53-.46-1.36-.69-2.5-.69h-5.58v5.81Z"/>
      <path class="cls-1" d="M394.47,521.75h-5.81v-2.06h13.95v2.06h-5.81v15.13h-2.33v-15.13Z"/>
      <path class="cls-1" d="M415.24,524.67c-.1-1.08-.53-1.92-1.28-2.51-.75-.59-1.76-.88-3.03-.88s-2.3.25-2.98.76c-.68.51-1.02,1.25-1.02,2.22,0,.66.23,1.16.68,1.49.45.33,1.36.65,2.73.97l2.99.71c1.61.38,2.75.95,3.44,1.7.69.74,1.03,1.79,1.03,3.15,0,1.56-.59,2.8-1.77,3.71-1.18.91-2.78,1.37-4.8,1.37-2.25,0-4-.53-5.26-1.58-1.23-1.04-1.85-2.46-1.85-4.26v-.13h2.14c.04,1.25.49,2.21,1.36,2.89.87.68,2.07,1.02,3.62,1.02,1.43,0,2.51-.25,3.25-.74.74-.49,1.11-1.21,1.11-2.16,0-.83-.24-1.44-.73-1.84-.49-.39-1.46-.76-2.93-1.11l-3-.71c-1.51-.36-2.6-.86-3.24-1.5-.65-.64-.97-1.52-.97-2.65,0-1.65.56-2.95,1.68-3.91,1.12-.96,2.63-1.44,4.53-1.44s3.47.48,4.62,1.45c1.14.97,1.76,2.3,1.83,4h-2.14Z"/>
    </g>
  </g>
</svg>